<svg version="1" xmlns="http://www.w3.org/2000/svg" width="682.667" height="682.667" viewBox="0 0 512.000000 512.000000"><path d="M236 42.7c-1.3.3-1.5 9.8-1.5 80.3 0 44-.2 80-.5 80s-22.1-21.6-48.5-48-48.3-48-48.7-48c-.3 0-7.4 6.6-15.6 14.7l-14.9 14.8 59.6 59.7 59.6 59.8-59.4 59.4c-54.1 54.1-59.3 59.6-58 61.2 2.8 3.4 28.1 28.4 28.7 28.4.4 0 22.5-21.8 49.2-48.5l48.5-48.5v79.3c-.1 43.5.1 79.9.3 80.7.3 1.3 2.2 1.5 10.8 1.5H256l61-61 61-61-45.7-45.8-45.8-45.7 45.8-45.7 45.7-45.8-60.9-60.9-61-61-9.3-.1c-5.1 0-10 .1-10.8.2zm61.8 141C287.2 194.3 278.3 203 278 203c-.4 0-.5-75.3-.1-77 0-.3 8.9 8.3 19.6 19l19.5 19.5-19.2 19.2zm0 144.6l19.2 19.2-19.3 19.3C287.1 377.3 278.3 386 278 386c-.3 0-.5-17.3-.5-38.5s.2-38.5.5-38.5 9.2 8.7 19.8 19.3z"/></svg>